<svg xmlns="http://www.w3.org/2000/svg" xmlns:xlink="http://www.w3.org/1999/xlink" width="307" height="482" viewBox="0 0 307 482" fill="none"><rect  x="0" y="0" width="301" height="482" rx="13"    fill="#D7F5F5" ></rect><rect  x="13" y="15" width="276" height="86" rx="13"    fill="#B4E8FA" fill-opacity="0.7"></rect><g ><path     fill="#000000"  d="M124.536 44.328L124.536 72.616L126.936 72.616L126.936 57.48L127.896 57.48C129.112 60.84 130.776 63.944 132.856 66.568C131.256 68.36 129.336 69.864 127.096 70.984C127.672 71.432 128.376 72.2 128.728 72.744C130.904 71.592 132.792 70.088 134.424 68.328C136.12 70.12 138.04 71.56 140.152 72.584C140.536 71.976 141.272 71.016 141.816 70.568C139.672 69.64 137.688 68.232 135.96 66.504C138.264 63.4 139.864 59.688 140.696 55.72L139.128 55.208L138.68 55.272L126.936 55.272L126.936 46.568L137.144 46.568C137.016 49.448 136.824 50.696 136.44 51.112C136.152 51.336 135.8 51.368 135.096 51.368C134.456 51.368 132.376 51.336 130.264 51.176C130.616 51.72 130.904 52.552 130.936 53.16C133.08 53.288 135.096 53.32 136.12 53.256C137.176 53.192 137.88 53 138.456 52.424C139.16 51.688 139.448 49.864 139.64 45.352C139.672 45 139.672 44.328 139.672 44.328L124.536 44.328ZM130.168 57.48L137.816 57.48C137.08 60.04 135.928 62.536 134.36 64.712C132.6 62.568 131.192 60.104 130.168 57.48ZM117.048 43.24L117.048 49.704L112.504 49.704L112.504 52.04L117.048 52.04L117.048 58.856L112.024 60.168L112.664 62.632L117.048 61.352L117.048 69.704C117.048 70.248 116.856 70.376 116.312 70.408C115.864 70.408 114.2 70.44 112.408 70.376C112.76 71.048 113.08 72.04 113.176 72.68C115.736 72.68 117.24 72.616 118.168 72.232C119.096 71.848 119.48 71.176 119.48 69.672L119.48 60.616L123.352 59.464L123.064 57.16L119.48 58.184L119.48 52.04L123.128 52.04L123.128 49.704L119.48 49.704L119.48 43.24L117.048 43.24ZM169.752 44.712C167.448 47.624 164.6 50.312 161.4 52.712L158.68 52.712L158.68 49.064L165.656 49.064L165.656 47.016L158.68 47.016L158.68 43.24L156.312 43.24L156.312 47.016L148.088 47.016L148.088 49.064L156.312 49.064L156.312 52.712L145.24 52.712L145.24 54.824L158.424 54.824C154.04 57.704 149.208 60.104 144.28 61.832C144.664 62.376 145.176 63.432 145.4 63.976C148.28 62.856 151.128 61.544 153.912 60.04C153.176 61.8 152.28 63.752 151.512 65.16L165.784 65.16C165.304 68.104 164.792 69.544 164.088 70.024C163.736 70.28 163.32 70.312 162.52 70.312C161.656 70.312 159.064 70.28 156.696 70.056C157.144 70.696 157.464 71.624 157.496 72.296C159.864 72.456 162.104 72.456 163.192 72.424C164.504 72.36 165.24 72.232 165.976 71.592C167 70.696 167.704 68.648 168.344 64.264C168.44 63.912 168.504 63.176 168.504 63.176L155 63.176L156.408 59.976L170.04 59.976L170.04 58.024L157.368 58.024C159 57.032 160.6 55.944 162.104 54.824L173.048 54.824L173.048 52.712L164.792 52.712C167.32 50.6 169.624 48.296 171.608 45.832L169.752 44.712ZM181.624 44.936L181.624 54.792C181.624 59.944 181.112 66.44 175.928 70.984C176.472 71.304 177.4 72.2 177.752 72.712C180.888 69.96 182.488 66.344 183.288 62.696L198.744 62.696L198.744 69.096C198.744 69.8 198.52 70.024 197.752 70.056C197.016 70.088 194.424 70.12 191.768 70.024C192.184 70.696 192.632 71.816 192.792 72.552C196.216 72.552 198.36 72.52 199.608 72.072C200.792 71.656 201.272 70.856 201.272 69.128L201.272 44.936L181.624 44.936ZM184.056 47.272L198.744 47.272L198.744 52.648L184.056 52.648L184.056 47.272ZM184.056 54.92L198.744 54.92L198.744 60.36L183.704 60.36C183.96 58.472 184.056 56.616 184.056 54.92ZM210.68 44.808L210.68 55.016C210.68 59.88 210.488 66.504 208.12 71.24C208.696 71.496 209.784 72.168 210.232 72.584C212.76 67.56 213.112 60.168 213.112 55.016L213.112 47.08L237.304 47.08L237.304 44.808L210.68 44.808ZM222.808 48.776C222.776 50.6 222.712 52.392 222.616 54.088L215.16 54.088L215.16 56.36L222.424 56.36C221.816 62.632 219.96 67.752 213.784 70.76C214.328 71.176 215.064 71.976 215.384 72.52C222.072 69.096 224.12 63.368 224.856 56.36L233.176 56.36C232.728 65.128 232.216 68.616 231.288 69.448C230.968 69.832 230.584 69.896 229.944 69.896C229.208 69.896 227.224 69.864 225.208 69.672C225.624 70.344 225.944 71.368 225.976 72.072C227.928 72.2 229.848 72.232 230.872 72.136C232.024 72.04 232.696 71.816 233.368 70.984C234.552 69.704 235.096 65.8 235.608 55.208C235.64 54.888 235.672 54.088 235.672 54.088L225.048 54.088C225.176 52.392 225.208 50.6 225.272 48.776L222.808 48.776Z"></path></g><g  clip-path="url(#clip-path-8_20)"><path d="M40 33L88 33L88 81L40 81L40 33Z"></path><g mask="url(#mask-8_21)"><path d="M83 73L83 43C83 41.3431 81.6569 40 80 40L48 40C46.3431 40 45 41.3431 45 43L45 73C45 74.6569 46.3431 76 48 76L80 76C81.6569 76 83 74.6569 83 73ZM79 44L49 44L49 53.0017L79 53.0017L79 44ZM79 57.0017L79 72L49 72L49 57.0017L79 57.0017Z" fill-rule="evenodd"  fill="#4E5969" ></path></g><g mask="url(#mask-8_21)"><path    stroke="rgba(78, 89, 105, 1)" stroke-width="4"    d="M74 38L74 38"></path></g><g mask="url(#mask-8_21)"><path    stroke="rgba(78, 89, 105, 1)" stroke-width="4"    d="M54 38L54 38"></path></g></g><g filter="url(#filter_8_27)"><rect  x="13" y="115" width="276" height="348" rx="13"    fill="#FFFFFF" fill-opacity="0.4"></rect></g><defs><clipPath id="clip-path-8_20"><path d="M40 81L88 81L88 33L40 33L40 81Z" fill="white"/></clipPath><mask id="mask-8_21" style="mask-type:alpha" maskUnits="userSpaceOnUse"><path fill="white" d="M40 33L88 33L88 81L40 81L40 33Z"></path></mask><filter id="filter_8_27" x="13" y="115" width="276" height="348" filterUnits="userSpaceOnUse" color-interpolation-filters="sRGB"><feFlood flood-opacity="0" result="feFloodId_8_27"/><feBlend mode="normal" in="SourceGraphic" in2="feFloodId_8_27" result="shape_8_27"/><feColorMatrix in="SourceAlpha" type="matrix" values="0 0 0 0 0 0 0 0 0 0 0 0 0 0 0 0 0 0 127 0" result="hardAlpha_8_27"/><feOffset dx="0" dy="15"/><feGaussianBlur stdDeviation="15"/><feComposite in2="hardAlpha_8_27" operator="arithmetic" k2="-1" k3="1"/><feColorMatrix type="matrix" values="0 0 0 0 1 0 0 0 0 1 0 0 0 0 1 0 0 0 0.2 0"/><feBlend mode="normal" in2="shape_8_27" result="innerShadow_0_8_27" /><feColorMatrix in="SourceAlpha" type="matrix" values="0 0 0 0 0 0 0 0 0 0 0 0 0 0 0 0 0 0 127 0" result="hardAlpha_8_27"/><feOffset dx="0" dy="0"/><feGaussianBlur stdDeviation="7.5"/><feComposite in2="hardAlpha_8_27" operator="arithmetic" k2="-1" k3="1"/><feColorMatrix type="matrix" values="0 0 0 0 1 0 0 0 0 1 0 0 0 0 1 0 0 0 0.25 0"/><feBlend mode="normal" in2="innerShadow_0_8_27" result="innerShadow_1_8_27" /><feColorMatrix in="SourceAlpha" type="matrix" values="0 0 0 0 0 0 0 0 0 0 0 0 0 0 0 0 0 0 127 0" result="hardAlpha_8_27"/><feOffset dx="0" dy="0"/><feGaussianBlur stdDeviation="1"/><feComposite in2="hardAlpha_8_27" operator="arithmetic" k2="-1" k3="1"/><feColorMatrix type="matrix" values="0 0 0 0 1 0 0 0 0 1 0 0 0 0 1 0 0 0 0.7 0"/><feBlend mode="normal" in2="innerShadow_1_8_27" result="innerShadow_2_8_27" /><feColorMatrix in="SourceAlpha" type="matrix" values="0 0 0 0 0 0 0 0 0 0 0 0 0 0 0 0 0 0 127 0" result="hardAlpha_8_27"/><feOffset dx="0" dy="1"/><feGaussianBlur stdDeviation="0.5"/><feComposite in2="hardAlpha_8_27" operator="arithmetic" k2="-1" k3="1"/><feColorMatrix type="matrix" values="0 0 0 0 1 0 0 0 0 1 0 0 0 0 1 0 0 0 0.5 0"/><feBlend mode="normal" in2="innerShadow_2_8_27" result="innerShadow_3_8_27" /></filter></defs></svg>