<svg xmlns="http://www.w3.org/2000/svg" xmlns:xlink="http://www.w3.org/1999/xlink" width="140.364013671875" height="33.227783203125" viewBox="0 0 140.364013671875 33.227783203125" fill="none"><g ><path     fill="#000000"  d="M20.7001 5.47189L28.1881 5.47189L28.1881 13.1399L20.7001 13.1399L20.7001 5.47189ZM18.1801 3.02389L18.1801 15.5879L30.8161 15.5879L30.8161 3.02389L18.1801 3.02389ZM8.24406 26.0999L25.0201 26.0999L25.0201 29.6639L8.24406 29.6639L8.24406 26.0999ZM8.24406 23.9759L8.24406 20.5919L25.0201 20.5919L25.0201 23.9759L8.24406 23.9759ZM5.58006 18.3599L5.58006 33.2279L8.24406 33.2279L8.24406 31.8959L25.0201 31.8959L25.0201 33.1559L27.7561 33.1559L27.7561 18.3599L5.58006 18.3599ZM4.39206 -0.000110626C3.60006 2.69989 2.16006 5.39989 0.360059 7.23589C0.972059 7.52389 2.01606 8.17189 2.52006 8.56789C3.31206 7.66789 4.06806 6.55189 4.78806 5.29189L7.84806 5.29189L7.84806 7.41589L7.77606 8.71189L0.360059 8.71189L0.360059 10.9439L7.30806 10.9439C6.51606 13.1399 4.60806 15.5159 5.85318e-05 17.3159C0.612059 17.7839 1.40406 18.6119 1.76406 19.1879C5.54406 17.4959 7.70406 15.4439 8.92806 13.3559C10.7281 14.5799 13.4281 16.5239 14.5081 17.3879L16.3801 15.5519C15.3361 14.8319 11.2321 12.3119 9.75606 11.5199L9.93606 10.9439L16.6681 10.9439L16.6681 8.71189L10.3681 8.71189L10.4041 7.41589L10.4041 5.29189L15.7321 5.29189L15.7321 3.09589L5.90406 3.09589C6.26406 2.26789 6.58806 1.36789 6.87606 0.503889L4.39206 -0.000110626ZM44.6401 24.7319L44.6401 29.4119C44.6401 32.0759 45.7201 32.7599 49.7521 32.7599C50.5801 32.7599 56.7361 32.7599 57.6361 32.7599C60.7681 32.7599 61.5961 31.8239 61.9561 27.8999C61.2001 27.7559 60.1561 27.3959 59.5801 26.9999C59.4001 30.0239 59.1121 30.4559 57.4201 30.4559C56.0161 30.4559 50.8681 30.4559 49.8601 30.4559C47.6641 30.4559 47.3401 30.3119 47.3401 29.3759L47.3401 24.7319L44.6401 24.7319ZM50.0041 24.7319C51.7681 25.8119 53.8201 27.4319 54.7561 28.6199L56.4841 27.0719C55.4761 25.8839 53.3881 24.3359 51.6241 23.3279L50.0041 24.7319ZM62.4241 25.4159C63.9001 27.5039 65.5201 30.3839 66.1321 32.1839L68.7241 31.3199C68.0761 29.5199 66.4201 26.7479 64.8721 24.6959L62.4241 25.4159ZM40.1401 25.0199C39.4921 26.9639 38.3401 29.4479 37.0441 30.9599L39.3841 32.2919C40.6801 30.6359 41.7241 27.9719 42.4441 25.9559L40.1401 25.0199ZM40.9321 17.2799L40.9321 19.0799L62.1721 19.0799L62.1721 21.3119L39.5641 21.3119L39.5641 23.1839L64.8001 23.1839L64.8001 13.3199L39.7801 13.3199L39.7801 15.1919L62.1721 15.1919L62.1721 17.2799L40.9321 17.2799ZM36.9721 9.07189L36.9721 10.8359L43.1641 10.8359L43.1641 12.7799L45.6481 12.7799L45.6481 10.8359L51.2641 10.8359L51.2641 9.07189L45.6481 9.07189L45.6481 7.30789L50.2921 7.30789L50.2921 5.54389L45.6481 5.54389L45.6481 3.77989L50.7601 3.77989L50.7601 1.97989L45.6481 1.97989L45.6481 0.107889L43.1641 0.107889L43.1641 1.97989L37.4041 1.97989L37.4041 3.77989L43.1641 3.77989L43.1641 5.54389L38.1601 5.54389L38.1601 7.30789L43.1641 7.30789L43.1641 9.07189L36.9721 9.07189ZM58.7881 0.107889L58.7881 1.97989L53.0281 1.97989L53.0281 3.77989L58.7881 3.77989L58.7881 5.54389L53.8201 5.54389L53.8201 7.30789L58.7881 7.30789L58.7881 9.14389L52.6321 9.14389L52.6321 10.9079L58.7881 10.9079L58.7881 12.7799L61.3081 12.7799L61.3081 10.9079L67.9681 10.9079L67.9681 9.14389L61.3081 9.14389L61.3081 7.30789L66.7441 7.30789L66.7441 5.54389L61.3081 5.54389L61.3081 3.77989L67.3201 3.77989L67.3201 1.97989L61.3081 1.97989L61.3081 0.107889L58.7881 0.107889ZM80.8561 10.2239L96.4441 10.2239L96.4441 13.4999L80.8561 13.4999L80.8561 10.2239ZM78.1561 8.24389L78.1561 15.4799L99.2521 15.4799L99.2521 8.24389L78.1561 8.24389ZM86.4361 0.611889L87.4801 3.85189L72.6841 3.85189L72.6841 6.22789L104.292 6.22789L104.292 3.85189L90.4681 3.85189C90.0721 2.69989 89.5321 1.18789 89.0281 -0.000110626L86.4361 0.611889ZM74.0161 17.4959L74.0161 33.1919L76.6081 33.1919L76.6081 19.7639L100.44 19.7639L100.44 30.3839C100.44 30.7799 100.26 30.9239 99.8281 30.9239C99.3961 30.9239 97.7041 30.9599 96.1561 30.8879C96.4801 31.4639 96.8761 32.2919 97.0201 32.9399C99.3241 32.9399 100.872 32.9399 101.844 32.6159C102.816 32.2559 103.14 31.6799 103.14 30.3479L103.14 17.4959L74.0161 17.4959ZM80.6761 21.8879L80.6761 31.1039L83.2321 31.1039L83.2321 29.3039L95.9761 29.3039L95.9761 21.8879L80.6761 21.8879ZM83.2321 23.9039L93.5281 23.9039L93.5281 27.2879L83.2321 27.2879L83.2321 23.9039ZM136.656 1.76389C134.064 5.03989 130.86 8.06389 127.26 10.7639L124.2 10.7639L124.2 6.65989L132.048 6.65989L132.048 4.35589L124.2 4.35589L124.2 0.107889L121.536 0.107889L121.536 4.35589L112.284 4.35589L112.284 6.65989L121.536 6.65989L121.536 10.7639L109.08 10.7639L109.08 13.1399L123.912 13.1399C118.98 16.3799 113.544 19.0799 108 21.0239C108.432 21.6359 109.008 22.8239 109.26 23.4359C112.5 22.1759 115.704 20.6999 118.836 19.0079C118.008 20.9879 117 23.1839 116.136 24.7679L132.192 24.7679C131.652 28.0799 131.076 29.6999 130.284 30.2399C129.888 30.5279 129.42 30.5639 128.52 30.5639C127.548 30.5639 124.632 30.5279 121.968 30.2759C122.472 30.9959 122.832 32.0399 122.868 32.7959C125.532 32.9759 128.052 32.9759 129.276 32.9399C130.752 32.8679 131.58 32.7239 132.408 32.0039C133.56 30.9959 134.352 28.6919 135.072 23.7599C135.18 23.3639 135.252 22.5359 135.252 22.5359L120.06 22.5359L121.644 18.9359L136.98 18.9359L136.98 16.7399L122.724 16.7399C124.56 15.6239 126.36 14.3999 128.052 13.1399L140.364 13.1399L140.364 10.7639L131.076 10.7639C133.92 8.38789 136.512 5.79589 138.744 3.02389L136.656 1.76389Z"></path></g></svg>