<svg xmlns="http://www.w3.org/2000/svg" xmlns:xlink="http://www.w3.org/1999/xlink" width="1539.00048828125" height="117" viewBox="0 0 1539.00048828125 117" fill="none"><rect  x="0" y="0" width="1539.0006103515625" height="117" rx="13"    fill="#FFFFFF" ></rect><ellipse cx="1477.9999771751075" cy="56.99998092651367" rx="39.99997717510756" ry="39.99998092651367"   fill="#C6EBF7" fill-opacity="0.25"></ellipse><g opacity="0"><rect x="1456" y="32" width="59.999974094222125" height="59.999969482421875"   fill="#000000" ></rect></g><path d="M1492.56 46.53C1492.56 38.4985 1486.06 32 1478.03 32C1470 32 1463.5 38.4985 1463.5 46.53C1463.5 51.376 1465.87 55.6655 1469.52 58.31C1466.82 59.448 1464.47 61.0411 1462.45 63.07C1460.43 65.0895 1458.84 67.4441 1457.73 70.07C1456.64 72.6352 1456.06 75.3569 1456 78.16C1456 78.4258 1456.21 78.64 1456.47 78.64L1459.98 78.64C1460.24 78.64 1460.45 78.4319 1460.45 78.18C1460.56 73.6559 1462.39 69.4235 1465.6 66.21C1468.92 62.8892 1473.33 61.06 1478.03 61.06C1482.73 61.06 1487.15 62.8892 1490.47 66.21C1493.68 69.4235 1495.5 73.6559 1495.61 78.18C1495.61 78.4365 1495.82 78.64 1496.08 78.64L1499.6 78.64C1499.86 78.64 1500.06 78.4258 1500.06 78.16C1500 75.3569 1499.43 72.6299 1498.34 70.06C1497.23 67.4341 1495.63 65.0795 1493.61 63.06C1491.59 61.0358 1489.24 59.4547 1486.61 58.34C1490.19 55.6722 1492.56 51.376 1492.56 46.53ZM1485.15 39.4031C1483.25 37.4983 1480.72 36.4531 1478.03 36.4531C1475.34 36.4531 1472.81 37.4983 1470.9 39.4031C1469 41.3079 1467.95 43.8443 1467.95 46.5331C1467.95 49.2219 1469 51.7483 1470.9 53.6531C1472.81 55.5579 1475.34 56.6131 1478.03 56.6131C1480.72 56.6131 1483.25 55.5579 1485.15 53.6531C1487.06 51.7483 1488.11 49.2219 1488.11 46.5331C1488.11 43.8443 1487.06 41.3079 1485.15 39.4031Z" fill-rule="evenodd"  fill="#000000" fill-opacity="0.65"></path><rect  x="1334" y="39.068359375" width="61.2396240234375" height="39.93168640136719" rx="2.65"    fill="#C6EBF7" ></rect><path    stroke="rgba(150, 150, 150, 1)" stroke-width="0.82"    d="M1335.93 40.324L1364.62 59.034"></path><path    stroke="rgba(150, 150, 150, 1)" stroke-width="0.82"    d="M1364.62 59.0342L1395.24 39.0684"></path><ellipse  cx="1395.2374877929688" cy="39.068254470825195" rx="8.76190185546875" ry="8.680803298950195"    fill="#FBDC8E" ></ellipse><g ><path     fill="#FFFFFF"  d="M1393.36 38.468L1396.3 38.468L1396.3 37.9132L1395.22 37.9132L1395.22 33.1171L1394.71 33.1171C1394.42 33.285 1394.08 33.4091 1393.6 33.4967L1393.6 33.9201L1394.56 33.9201L1394.56 37.9132L1393.36 37.9132L1393.36 38.468Z"></path></g><g filter="url(#filter_8_46)"><rect  x="683" y="22" width="611" height="70" rx="29"    fill="#EBF5FA" fill-opacity="0.7"></rect></g><path d="M735.995 68.8234Q733.966 70.4516 731.529 71.4393Q728.278 72.7571 724.756 72.7571Q721.234 72.7571 717.984 71.4393Q714.617 70.0742 712.029 67.4861L712.029 67.4859L712.029 67.4857Q709.441 64.8964 708.076 61.5291Q706.758 58.2781 706.758 54.7563Q706.758 51.2344 708.076 47.9841Q709.441 44.6172 712.029 42.0292Q714.617 39.4411 717.984 38.076Q721.234 36.7582 724.756 36.7582Q728.278 36.7582 731.529 38.076Q734.896 39.4409 737.485 42.0288L737.486 42.029L737.486 42.0292Q740.074 44.6172 741.439 47.9841Q742.757 51.2344 742.757 54.7563Q742.757 58.2781 741.439 61.5291Q740.451 63.9657 738.823 65.995L745.97 73.1417L743.142 75.9701L735.995 68.8234ZM734.658 64.6573Q736.672 62.6418 737.732 60.0264Q738.757 57.4982 738.757 54.7563Q738.757 52.0145 737.732 49.487Q736.672 46.8723 734.658 44.858L734.657 44.8576Q732.642 42.8433 730.026 41.783Q727.498 40.7582 724.756 40.7582Q722.014 40.7582 719.487 41.7829Q716.872 42.8432 714.857 44.8576Q712.843 46.872 711.783 49.487Q710.758 52.0145 710.758 54.7563Q710.758 57.4983 711.783 60.0264Q712.843 62.6421 714.857 64.6577L714.858 64.6581Q716.872 66.6722 719.487 67.7324Q722.014 68.7571 724.756 68.7571Q727.498 68.7571 730.026 67.7323Q732.642 66.6722 734.657 64.6581L734.658 64.6573Z" fill-rule="evenodd"  fill="#4E5969" ></path><path d="M62.014 40.2761L79.014 50.2755L80 50.8555L80 78L42 78L42 50.8555L42.986 50.2755L59.986 40.2761L61 39.6797L62.014 40.2761ZM46 53.1433L46 74L55.0016 74L55.0016 60.9984L66.9984 60.9984L66.9984 74L76 74L76 53.1433L61 44.3203L46 53.1433ZM62.9984 74L62.9984 64.9984L59.0016 64.9984L59.0016 74L62.9984 74Z" fill-rule="evenodd"  fill="#4E5969" ></path><g ><path     fill="#000000"  d="M781.824 65.816L781.824 66.896L802.272 66.896L802.272 65.816L792.6 65.816L792.6 61.256L799.536 61.256L799.536 60.152L792.6 60.152L792.6 55.856L799.416 55.856L799.416 54.752L784.752 54.752L784.752 55.856L791.4 55.856L791.4 60.152L784.8 60.152L784.8 61.256L791.4 61.256L791.4 65.816L781.824 65.816ZM792.024 45.536C789.6 49.376 785.208 53.144 780.768 55.232C781.056 55.472 781.416 55.856 781.608 56.144C785.52 54.176 789.384 50.96 792 47.48C795.12 51.176 798.624 53.864 802.464 56.24C802.656 55.904 803.016 55.496 803.304 55.28C799.344 52.976 795.648 50.264 792.648 46.592L793.032 45.992L792.024 45.536ZM807.84 47.168L807.84 52.784C807.84 56.744 807.552 62.264 804.768 66.248C805.032 66.392 805.536 66.776 805.728 67.016C807.84 63.944 808.608 59.912 808.872 56.36L824.52 56.36C824.208 63.152 823.848 65.648 823.296 66.248C823.08 66.512 822.816 66.56 822.336 66.56C821.88 66.56 820.512 66.536 819.072 66.416C819.264 66.728 819.384 67.184 819.408 67.52C820.752 67.616 822.072 67.64 822.768 67.592C823.464 67.544 823.896 67.424 824.28 66.968C825.024 66.128 825.312 63.488 825.672 55.928C825.672 55.736 825.696 55.304 825.696 55.304L808.944 55.304C808.968 54.464 808.992 53.648 808.992 52.904L824.064 52.904L824.064 47.168L807.84 47.168ZM808.992 48.2L822.912 48.2L822.912 51.848L808.992 51.848L808.992 48.2ZM811.488 58.544L811.488 65.864L812.568 65.864L812.568 64.472L820.44 64.472L820.44 58.544L811.488 58.544ZM812.568 59.576L819.336 59.576L819.336 63.464L812.568 63.464L812.568 59.576ZM832.272 45.824L832.272 50.816L829.224 50.816L829.224 51.944L832.272 51.944L832.272 57.608C831.072 58.088 829.968 58.496 829.104 58.808L829.488 59.912L832.272 58.784L832.272 65.96C832.272 66.272 832.152 66.344 831.888 66.344C831.624 66.368 830.784 66.368 829.752 66.344C829.92 66.68 830.064 67.16 830.112 67.472C831.48 67.472 832.248 67.424 832.728 67.232C833.208 67.04 833.4 66.68 833.4 65.936L833.4 58.328L836.28 57.128L836.064 56.072L833.4 57.152L833.4 51.944L836.04 51.944L836.04 50.816L833.4 50.816L833.4 45.824L832.272 45.824ZM837.072 59.072L837.072 60.128L838.104 60.128C839.136 61.952 840.648 63.44 842.496 64.64C840.288 65.672 837.768 66.32 835.272 66.68C835.488 66.944 835.728 67.4 835.824 67.688C838.536 67.256 841.248 66.488 843.576 65.288C845.52 66.344 847.752 67.112 850.128 67.592C850.296 67.28 850.608 66.848 850.872 66.584C848.616 66.224 846.528 65.576 844.68 64.688C846.816 63.392 848.568 61.664 849.624 59.384L848.88 59.024L848.664 59.072L844.08 59.072L844.08 56.408L849.768 56.408L849.768 47.936L845.208 47.936L845.208 48.944L848.664 48.944L848.664 51.632L845.328 51.632L845.328 52.592L848.664 52.592L848.664 55.4L844.08 55.4L844.08 45.776L843 45.776L843 55.4L838.584 55.4L838.584 52.616L841.608 52.616L841.608 51.656L838.584 51.656L838.584 49.064C839.928 48.656 841.344 48.176 842.424 47.576L841.488 46.808C840.576 47.36 838.944 48.008 837.528 48.44L837.528 56.408L843 56.408L843 59.072L837.072 59.072ZM847.968 60.128C846.96 61.784 845.424 63.08 843.6 64.088C841.8 63.056 840.336 61.712 839.328 60.128L847.968 60.128ZM867.432 63.488C869.52 64.496 872.112 66.08 873.384 67.136L874.272 66.368C872.952 65.288 870.36 63.8 868.296 62.816L867.432 63.488ZM859.392 62.768C857.88 64.184 855.504 65.552 853.368 66.464C853.632 66.632 854.088 67.064 854.28 67.256C856.368 66.272 858.816 64.736 860.448 63.2L859.392 62.768ZM856.824 58.64C857.208 58.496 857.856 58.424 863.088 58.112C860.688 59.216 858.576 60.032 857.688 60.32C856.32 60.8 855.192 61.112 854.496 61.16C854.616 61.496 854.784 62.048 854.832 62.312C855.384 62.12 856.224 62.048 863.712 61.616L863.712 66.032C863.712 66.32 863.64 66.416 863.256 66.416C862.872 66.44 861.696 66.44 860.088 66.392C860.28 66.728 860.472 67.16 860.544 67.52C862.344 67.52 863.448 67.496 864.048 67.304C864.72 67.112 864.864 66.776 864.864 66.056L864.864 61.544L871.152 61.184C871.848 61.76 872.472 62.336 872.88 62.816L873.768 62.096C872.76 60.992 870.672 59.432 868.944 58.4L868.08 59.024C868.728 59.408 869.4 59.864 870.048 60.344L858.456 60.944C861.936 59.792 865.464 58.328 868.92 56.408L868.08 55.592C867.168 56.12 866.208 56.624 865.224 57.104L859.32 57.416C860.76 56.816 862.2 56.024 863.616 55.064L863.016 54.632L874.608 54.632L874.608 53.624L864.576 53.624L864.576 51.704L871.992 51.704L871.992 50.72L864.576 50.72L864.576 48.824L873.504 48.824L873.504 47.84L864.576 47.84L864.576 45.776L863.4 45.776L863.4 47.84L854.736 47.84L854.736 48.824L863.4 48.824L863.4 50.72L856.104 50.72L856.104 51.704L863.4 51.704L863.4 53.624L853.488 53.624L853.488 54.632L862.344 54.632C860.688 55.808 858.672 56.792 858.048 57.056C857.424 57.32 856.92 57.488 856.488 57.536C856.608 57.824 856.776 58.4 856.824 58.64Z"></path></g><defs><filter id="filter_8_46" x="679" y="20" width="619" height="78" filterUnits="userSpaceOnUse" color-interpolation-filters="sRGB"><feFlood flood-opacity="0" result="feFloodId_8_46"/><feColorMatrix in="SourceAlpha" type="matrix" values="0 0 0 0 0 0 0 0 0 0 0 0 0 0 0 0 0 0 127 0" result="hardAlpha_8_46"/><feOffset dx="0" dy="2"/><feGaussianBlur stdDeviation="2"/><feComposite in2="hardAlpha_8_46" operator="out"/><feColorMatrix type="matrix" values="0 0 0 0 0 0 0 0 0 0 0 0 0 0 0 0 0 0 0.25 0"/><feBlend mode="normal" in2="feFloodId_8_46" result="dropShadow_1_8_46"/><feBlend mode="normal" in="SourceGraphic" in2="dropShadow_1_8_46" result="shape_8_46"/><feBlend mode="normal" in="SourceGraphic" in2="feFloodId_8_46" result="shape_8_46"/><feColorMatrix in="SourceAlpha" type="matrix" values="0 0 0 0 0 0 0 0 0 0 0 0 0 0 0 0 0 0 127 0" result="hardAlpha_8_46"/><feOffset dx="0" dy="15"/><feGaussianBlur stdDeviation="15"/><feComposite in2="hardAlpha_8_46" operator="arithmetic" k2="-1" k3="1"/><feColorMatrix type="matrix" values="0 0 0 0 0.9803921568627451 0 0 0 0 0.9921568627450981 0 0 0 0 1 0 0 0 0.2 0"/><feBlend mode="normal" in2="shape_8_46" result="innerShadow_0_8_46" /><feColorMatrix in="SourceAlpha" type="matrix" values="0 0 0 0 0 0 0 0 0 0 0 0 0 0 0 0 0 0 127 0" result="hardAlpha_8_46"/><feOffset dx="0" dy="0"/><feGaussianBlur stdDeviation="7.5"/><feComposite in2="hardAlpha_8_46" operator="arithmetic" k2="-1" k3="1"/><feColorMatrix type="matrix" values="0 0 0 0 0.9803921568627451 0 0 0 0 0.9921568627450981 0 0 0 0 1 0 0 0 0.2 0"/><feBlend mode="normal" in2="innerShadow_0_8_46" result="innerShadow_1_8_46" /></filter></defs></svg>