<svg xmlns="http://www.w3.org/2000/svg" xmlns:xlink="http://www.w3.org/1999/xlink" width="355" height="440" viewBox="0 0 355 440" fill="none"><path     fill="#E8FAFA"  d="M13 -3.52698e-14L288 -3.52698e-14C295.18 -3.52698e-14 301 5.8203 301 13L301 427C301 434.18 295.18 440 288 440L13 440C5.8203 440 -7.97575e-14 434.18 -7.84386e-14 427L2.61462e-14 13C2.65858e-14 5.8203 5.8203 -3.61491e-14 13 -3.52698e-14Z"></path><rect  x="13" y="14" width="276" height="86" rx="13"    fill="#B4E8FA" fill-opacity="0.7"></rect><g ><path     fill="#000000"  d="M121.776 59.136L138.16 59.136L138.16 62.4L121.776 62.4L121.776 59.136ZM121.776 57.184L121.776 54.016L138.16 54.016L138.16 57.184L121.776 57.184ZM121.776 64.32L138.16 64.32L138.16 67.712L121.776 67.712L121.776 64.32ZM121.296 43.04C122.288 44.096 123.408 45.568 124.016 46.656L115.728 46.656L115.728 48.896L128.592 48.896C128.4 49.856 128.144 50.944 127.856 51.872L119.376 51.872L119.376 71.68L121.776 71.68L121.776 69.856L138.16 69.856L138.16 71.68L140.656 71.68L140.656 51.872L130.384 51.872L131.472 48.896L144.368 48.896L144.368 46.656L136.272 46.656C137.2 45.536 138.224 44.192 139.12 42.88L136.464 42.176C135.792 43.52 134.576 45.376 133.552 46.656L125.04 46.656L126.448 45.92C125.84 44.864 124.592 43.264 123.408 42.112L121.296 43.04ZM160.848 54.336L160.848 60.128C160.848 63.552 159.472 67.36 147.6 69.728C148.112 70.24 148.784 71.168 149.072 71.68C161.52 68.992 163.312 64.544 163.312 60.16L163.312 54.336L160.848 54.336ZM163.44 65.6C167.152 67.328 171.984 69.984 174.32 71.776L175.824 69.856C173.328 68.096 168.496 65.568 164.848 63.968L163.44 65.6ZM151.472 50.08L151.472 65.024L153.936 65.024L153.936 52.32L170.32 52.32L170.32 64.96L172.848 64.96L172.848 50.08L161.296 50.08C161.904 48.96 162.544 47.584 163.12 46.24L175.92 46.24L175.92 44L148.368 44L148.368 46.24L160.368 46.24C159.984 47.488 159.408 48.928 158.896 50.08L151.472 50.08Z"></path></g><g ><path     fill="#000000"  d="M114.88 139.936L114.88 142.048L127.776 142.048L127.776 139.936L114.88 139.936ZM112.416 145.696L112.416 147.872L116.896 147.872C116.448 152.832 115.168 156 109.632 157.728C110.144 158.176 110.784 159.072 111.04 159.648C117.12 157.536 118.688 153.728 119.2 147.872L122.592 147.872L122.592 156.288C122.592 158.624 123.104 159.296 125.344 159.296C125.792 159.296 127.744 159.296 128.224 159.296C130.176 159.296 130.752 158.208 130.944 154.048C130.304 153.888 129.376 153.536 128.896 153.12C128.832 156.672 128.672 157.184 127.968 157.184C127.552 157.184 126.016 157.184 125.696 157.184C124.992 157.184 124.864 157.056 124.864 156.256L124.864 147.872L130.56 147.872L130.56 145.696L112.416 145.696ZM118.752 130.688C119.392 131.744 120.064 133.12 120.48 134.208L112.288 134.208L112.288 139.872L114.56 139.872L114.56 136.32L128.064 136.32L128.064 139.872L130.368 139.872L130.368 134.208L122.4 134.208L123.008 133.984C122.624 132.896 121.728 131.232 120.928 129.984L118.752 130.688ZM102.528 131.552L102.528 159.616L104.704 159.616L104.704 133.728L108.928 133.728C108.256 135.872 107.296 138.688 106.368 140.96C108.672 143.52 109.28 145.728 109.28 147.488C109.28 148.48 109.088 149.376 108.576 149.728C108.32 149.888 107.968 149.984 107.584 150.016C107.072 150.048 106.464 150.016 105.728 149.984C106.08 150.592 106.304 151.52 106.336 152.096C107.04 152.128 107.84 152.128 108.48 152.032C109.152 151.968 109.696 151.776 110.144 151.456C111.04 150.784 111.424 149.44 111.424 147.712C111.424 145.696 110.88 143.392 108.544 140.704C109.632 138.144 110.816 135.008 111.744 132.384L110.176 131.456L109.824 131.552L102.528 131.552ZM149.056 138.016C147.936 140.256 145.888 142.976 143.776 144.704C144.32 145.056 145.088 145.696 145.472 146.144C147.616 144.256 149.76 141.536 151.232 138.976L149.056 138.016ZM155.008 139.104C157.12 141.152 159.488 144.032 160.544 145.952L162.336 144.48C161.248 142.624 158.784 139.84 156.672 137.824L155.008 139.104ZM150.368 130.912C151.36 132.096 152.416 133.792 152.896 134.944L144.8 134.944L144.8 137.184L162.368 137.184L162.368 134.944L153.056 134.944L155.072 133.984C154.592 132.864 153.472 131.264 152.384 130.048L150.368 130.912ZM156.32 143.648C155.648 146.208 154.56 148.48 153.12 150.496C151.552 148.512 150.304 146.24 149.44 143.776L147.328 144.352C148.384 147.328 149.824 150.048 151.616 152.352C149.504 154.624 146.816 156.48 143.552 157.888C144.064 158.304 144.768 159.2 145.088 159.712C148.32 158.272 151.008 156.416 153.152 154.144C155.392 156.48 158.08 158.304 161.248 159.488C161.632 158.816 162.336 157.824 162.912 157.344C159.712 156.32 156.96 154.56 154.72 152.288C156.48 149.984 157.76 147.296 158.656 144.224L156.32 143.648ZM138.176 130.24L138.176 137.024L134.016 137.024L134.016 139.264L137.76 139.264C136.832 143.648 134.912 148.8 132.96 151.488C133.376 152.064 133.984 153.12 134.208 153.76C135.68 151.552 137.12 147.872 138.176 144.128L138.176 159.648L140.384 159.648L140.384 143.68C141.28 145.408 142.304 147.552 142.752 148.672L144.192 146.848C143.616 145.856 141.152 141.6 140.384 140.576L140.384 139.264L144 139.264L144 137.024L140.384 137.024L140.384 130.24L138.176 130.24ZM174.4 149.28C174.688 149.024 175.776 148.832 177.408 148.832L182.976 148.832L182.976 152.512L171.424 152.512L171.424 154.752L182.976 154.752L182.976 159.648L185.344 159.648L185.344 154.752L194.528 154.752L194.528 152.512L185.344 152.512L185.344 148.832L192.416 148.832L192.416 146.656L185.344 146.656L185.344 143.296L182.976 143.296L182.976 146.656L176.896 146.656C177.888 145.184 178.88 143.488 179.776 141.728L193.184 141.728L193.184 139.552L180.864 139.552L181.888 137.248L179.424 136.384C179.072 137.44 178.656 138.528 178.208 139.552L172.32 139.552L172.32 141.728L177.184 141.728C176.384 143.328 175.68 144.544 175.328 145.056C174.688 146.112 174.144 146.816 173.568 146.944C173.856 147.584 174.272 148.8 174.4 149.28ZM179.008 130.848C179.552 131.616 180.096 132.608 180.48 133.472L167.872 133.472L167.872 142.72C167.872 147.36 167.648 153.888 164.992 158.464C165.568 158.72 166.624 159.392 167.04 159.84C169.824 154.976 170.24 147.68 170.24 142.72L170.24 135.744L194.464 135.744L194.464 133.472L183.2 133.472C182.816 132.48 182.08 131.232 181.344 130.24L179.008 130.848Z"></path></g><g ><path     fill="#000000"  d="M100.176 206.848C99.6 208.096 98.576 209.984 97.776 211.104L99.344 211.872C100.176 210.816 101.264 209.216 102.192 207.744L100.176 206.848ZM88.816 207.744C89.648 209.088 90.512 210.848 90.8 211.968L92.624 211.168C92.336 210.016 91.472 208.288 90.576 207.04L88.816 207.744ZM99.12 224.8C98.384 226.464 97.36 227.872 96.144 229.088C94.928 228.48 93.68 227.872 92.496 227.36C92.944 226.592 93.456 225.728 93.904 224.8L99.12 224.8ZM89.52 228.224C91.088 228.832 92.848 229.632 94.448 230.464C92.4 231.936 89.936 232.96 87.312 233.568C87.728 234.016 88.24 234.848 88.464 235.424C91.408 234.624 94.128 233.376 96.432 231.52C97.488 232.16 98.448 232.768 99.184 233.312L100.72 231.744C99.984 231.232 99.056 230.656 98 230.08C99.696 228.256 101.04 226.016 101.84 223.232L100.528 222.688L100.144 222.784L94.896 222.784L95.6 221.12L93.456 220.736C93.232 221.376 92.912 222.08 92.592 222.784L88.24 222.784L88.24 224.8L91.6 224.8C90.928 226.08 90.192 227.264 89.52 228.224ZM94.224 206.208L94.224 212.192L87.6 212.192L87.6 214.176L93.488 214.176C91.952 216.256 89.488 218.24 87.248 219.2C87.728 219.648 88.272 220.48 88.56 221.024C90.512 219.968 92.624 218.176 94.224 216.288L94.224 220.192L96.464 220.192L96.464 215.84C98 216.96 99.952 218.464 100.752 219.2L102.096 217.472C101.328 216.928 98.512 215.136 96.944 214.176L102.992 214.176L102.992 212.192L96.464 212.192L96.464 206.208L94.224 206.208ZM106.128 206.496C105.328 212.128 103.888 217.504 101.392 220.864C101.904 221.184 102.832 221.952 103.216 222.336C104.048 221.152 104.752 219.744 105.392 218.176C106.096 221.312 107.024 224.224 108.208 226.752C106.416 229.792 103.92 232.128 100.432 233.824C100.88 234.304 101.552 235.264 101.776 235.776C105.04 234.016 107.504 231.808 109.392 228.992C110.992 231.712 112.976 233.888 115.472 235.392C115.856 234.784 116.56 233.952 117.104 233.504C114.416 232.064 112.304 229.728 110.672 226.784C112.368 223.488 113.456 219.488 114.16 214.688L116.336 214.688L116.336 212.448L107.216 212.448C107.664 210.656 108.048 208.768 108.336 206.848L106.128 206.496ZM111.888 214.688C111.376 218.368 110.608 221.568 109.456 224.288C108.24 221.408 107.344 218.144 106.736 214.688L111.888 214.688ZM133.488 225.504L133.488 235.712L135.6 235.712L135.6 234.4L145.456 234.4L145.456 235.584L147.664 235.584L147.664 225.504L141.488 225.504L141.488 221.536L148.656 221.536L148.656 219.456L141.488 219.456L141.488 215.936L147.536 215.936L147.536 207.648L130.64 207.648L130.64 217.312C130.64 222.4 130.352 229.376 127.024 234.304C127.568 234.56 128.56 235.264 129.008 235.648C131.664 231.744 132.56 226.304 132.848 221.536L139.216 221.536L139.216 225.504L133.488 225.504ZM132.976 209.728L145.232 209.728L145.232 213.824L132.976 213.824L132.976 209.728ZM132.976 215.936L139.216 215.936L139.216 219.456L132.944 219.456L132.976 217.312L132.976 215.936ZM135.6 232.416L135.6 227.552L145.456 227.552L145.456 232.416L135.6 232.416ZM123.344 206.272L123.344 212.704L119.344 212.704L119.344 214.944L123.344 214.944L123.344 221.952C121.68 222.464 120.144 222.912 118.928 223.232L119.568 225.6L123.344 224.384L123.344 232.672C123.344 233.12 123.184 233.248 122.8 233.248C122.416 233.28 121.168 233.28 119.792 233.248C120.08 233.888 120.4 234.88 120.464 235.456C122.48 235.488 123.728 235.392 124.496 235.008C125.296 234.656 125.584 233.984 125.584 232.672L125.584 223.648L129.264 222.432L128.912 220.224L125.584 221.28L125.584 214.944L129.2 214.944L129.2 212.704L125.584 212.704L125.584 206.272L123.344 206.272ZM164.656 206.24L164.656 211.968L153.072 211.968L153.072 227.168L155.472 227.168L155.472 225.184L164.656 225.184L164.656 235.648L167.184 235.648L167.184 225.184L176.4 225.184L176.4 227.008L178.864 227.008L178.864 211.968L167.184 211.968L167.184 206.24L164.656 206.24ZM155.472 222.816L155.472 214.304L164.656 214.304L164.656 222.816L155.472 222.816ZM176.4 222.816L167.184 222.816L167.184 214.304L176.4 214.304L176.4 222.816ZM191.44 215.168L191.44 231.04C191.44 234.208 192.464 235.104 195.92 235.104C196.656 235.104 201.584 235.104 202.384 235.104C206 235.104 206.736 233.312 207.088 227.232C206.416 227.04 205.392 226.592 204.784 226.144C204.56 231.68 204.272 232.832 202.288 232.832C201.168 232.832 196.976 232.832 196.112 232.832C194.288 232.832 193.936 232.544 193.936 231.04L193.936 215.168L191.44 215.168ZM186.32 217.568C185.84 221.376 184.784 226.4 183.408 229.664L185.84 230.688C187.152 227.232 188.144 221.824 188.624 218.016L186.32 217.568ZM206.352 217.6C208.144 221.376 209.904 226.464 210.544 229.76L212.912 228.8C212.24 225.504 210.448 220.576 208.592 216.736L206.352 217.6ZM192.944 208.928C195.984 211.072 199.76 214.24 201.552 216.256L203.28 214.432C201.424 212.416 197.584 209.408 194.576 207.36L192.944 208.928Z"></path></g><g ><path     fill="#000000"  d="M96.64 306.928L96.64 313.904C96.64 316.528 97.632 317.232 101.312 317.232C102.08 317.232 107.776 317.232 108.608 317.232C111.712 317.232 112.48 316.176 112.832 311.984C112.16 311.824 111.168 311.504 110.624 311.088C110.464 314.512 110.176 315.056 108.448 315.056C107.2 315.056 102.4 315.056 101.44 315.056C99.392 315.056 99.04 314.832 99.04 313.872L99.04 306.928L96.64 306.928ZM100.096 305.008C102.72 306.544 105.792 308.912 107.232 310.544L108.992 308.912C107.456 307.248 104.32 305.04 101.76 303.568L100.096 305.008ZM111.808 307.696C113.408 310.416 115.2 314.064 115.936 316.272L118.272 315.28C117.472 313.136 115.584 309.552 113.984 306.896L111.808 307.696ZM92.8 307.216C92.16 309.712 91.04 312.944 89.6 314.96L91.744 316.08C93.184 313.968 94.272 310.544 94.944 307.952L92.8 307.216ZM102.688 288.24L102.688 292.848L89.792 292.848L89.792 295.152L102.688 295.152L102.688 300.592L91.872 300.592L91.872 302.864L116.352 302.864L116.352 300.592L105.184 300.592L105.184 295.152L118.304 295.152L118.304 292.848L105.184 292.848L105.184 288.24L102.688 288.24ZM131.52 309.616L131.52 314.32C131.52 316.592 132.32 317.2 135.52 317.2C136.192 317.2 141.024 317.2 141.696 317.2C144.256 317.2 144.928 316.368 145.216 312.848C144.608 312.752 143.712 312.432 143.232 312.08C143.104 314.864 142.88 315.216 141.504 315.216C140.48 315.216 136.416 315.216 135.648 315.216C133.952 315.216 133.664 315.056 133.664 314.288L133.664 309.616L131.52 309.616ZM135.872 309.584C137.12 310.8 138.72 312.464 139.456 313.488L141.12 312.304C140.352 311.312 138.752 309.712 137.504 308.56L135.872 309.584ZM141.504 303.952C143.456 305.168 146.016 306.896 147.328 307.984L148.896 306.512C147.552 305.488 144.96 303.824 143.04 302.704L141.504 303.952ZM144.512 309.744C145.824 311.504 147.456 313.936 148.256 315.344L150.208 314.448C149.376 313.072 147.68 310.704 146.336 309.008L144.512 309.744ZM128.128 309.52C127.616 311.408 126.688 313.904 125.632 315.408L127.456 316.272C128.512 314.672 129.344 312.144 129.952 310.192L128.128 309.52ZM131.136 298.736L145.088 298.736L145.088 300.72L131.136 300.72L131.136 298.736ZM131.136 295.248L145.088 295.248L145.088 297.232L131.136 297.232L131.136 295.248ZM131.776 302.768C130.4 304.048 128.384 305.52 126.56 306.512C127.072 306.832 127.936 307.536 128.32 307.952C130.048 306.8 132.288 305.008 133.856 303.504L131.776 302.768ZM123.808 289.552L123.808 298.544C123.808 303.728 123.616 311.184 121.088 316.528C121.632 316.752 122.624 317.424 123.008 317.84C125.696 312.24 126.048 303.984 126.048 298.512L126.048 291.504L149.344 291.504L149.344 289.552L123.808 289.552ZM136.448 291.568C136.32 292.144 136.096 292.976 135.904 293.712L128.928 293.712L128.928 302.256L136.8 302.256L136.8 305.872C136.8 306.192 136.704 306.288 136.352 306.288C135.936 306.32 134.688 306.32 133.248 306.288C133.536 306.8 133.92 307.536 134.016 308.08C135.936 308.08 137.184 308.08 137.984 307.792C138.848 307.472 139.04 306.992 139.04 305.936L139.04 302.256L147.36 302.256L147.36 293.712L138.336 293.712L139.136 292.048L136.448 291.568ZM167.104 301.776L178.24 301.776L178.24 304.08L167.104 304.08L167.104 301.776ZM167.104 297.776L178.24 297.776L178.24 300.016L167.104 300.016L167.104 297.776ZM175.424 288.24L175.424 290.896L170.496 290.896L170.496 288.24L168.224 288.24L168.224 290.896L163.52 290.896L163.52 292.944L168.224 292.944L168.224 295.344L170.496 295.344L170.496 292.944L175.424 292.944L175.424 295.344L177.76 295.344L177.76 292.944L182.24 292.944L182.24 290.896L177.76 290.896L177.76 288.24L175.424 288.24ZM164.864 295.952L164.864 305.872L171.392 305.872C171.264 306.832 171.136 307.696 170.912 308.528L162.88 308.528L162.88 310.576L170.208 310.576C168.992 313.04 166.688 314.736 161.984 315.76C162.432 316.24 163.04 317.136 163.264 317.68C168.832 316.336 171.424 314.032 172.704 310.64C174.304 314.16 177.28 316.56 181.44 317.68C181.76 317.072 182.4 316.176 182.912 315.696C179.296 314.928 176.544 313.168 175.008 310.576L182.176 310.576L182.176 308.528L173.312 308.528C173.472 307.696 173.632 306.8 173.728 305.872L180.576 305.872L180.576 295.952L164.864 295.952ZM157.6 288.24L157.6 294.416L153.6 294.416L153.6 296.656L157.6 296.656L157.6 296.688C156.736 301.04 154.88 306.128 153.024 308.816C153.44 309.392 154.016 310.448 154.304 311.152C155.52 309.264 156.672 306.352 157.6 303.216L157.6 317.648L159.904 317.648L159.904 301.168C160.768 302.864 161.76 304.912 162.176 305.968L163.712 304.24C163.168 303.248 160.736 299.248 159.904 298L159.904 296.656L163.2 296.656L163.2 294.416L159.904 294.416L159.904 288.24L157.6 288.24ZM200.384 292.016C202.112 295.12 203.84 299.216 204.448 301.744L206.56 300.816C205.952 298.288 204.128 294.288 202.336 291.248L200.384 292.016ZM189.344 288.272L189.344 294.704L185.344 294.704L185.344 296.944L189.344 296.944L189.344 303.952C187.648 304.464 186.112 304.912 184.896 305.232L185.504 307.6L189.344 306.352L189.344 314.832C189.344 315.28 189.184 315.408 188.8 315.408C188.416 315.44 187.168 315.44 185.792 315.408C186.08 316.048 186.4 317.04 186.464 317.616C188.48 317.616 189.728 317.552 190.496 317.168C191.264 316.784 191.552 316.144 191.552 314.832L191.552 305.616L194.912 304.496L194.592 302.32L191.552 303.28L191.552 296.944L194.592 296.944L194.592 294.704L191.552 294.704L191.552 288.272L189.344 288.272ZM209.696 289.072C209.312 301.84 208.032 310.768 201.088 315.728C201.664 316.144 202.72 317.072 203.04 317.552C206.176 315.024 208.224 311.856 209.568 307.92C211.008 311.024 212.32 314.416 212.896 316.656L215.168 315.568C214.4 312.752 212.384 308.208 210.496 304.624C211.488 300.272 211.904 295.152 212.128 289.136L209.696 289.072ZM196.704 314.64L196.704 314.576L196.736 314.672C197.344 313.872 198.24 313.072 205.408 307.888C205.152 307.408 204.8 306.48 204.608 305.84L199.328 309.552L199.328 289.584L196.992 289.584L196.992 309.84C196.992 311.376 196 312.432 195.392 312.848C195.808 313.264 196.448 314.16 196.704 314.64Z"></path></g><g ><path     fill="#000000"  d="M104.128 392.12L107.104 392.12L109.376 384.952L117.952 384.952L120.192 392.12L123.328 392.12L115.36 368.664L112.064 368.664L104.128 392.12ZM110.112 382.616L111.264 379C112.096 376.344 112.864 373.816 113.6 371.064L113.728 371.064C114.496 373.784 115.232 376.344 116.096 379L117.216 382.616L110.112 382.616ZM126.688 392.12L129.632 392.12L129.632 368.664L126.688 368.664L126.688 392.12ZM153.088 365.24C153.088 367.704 153.088 370.168 153.024 372.504L147.744 372.504L147.744 374.776L152.928 374.776C152.48 382.52 150.848 389.144 144.704 392.952C145.28 393.368 146.08 394.168 146.464 394.744C152.992 390.456 154.752 383.192 155.232 374.776L160.224 374.776C159.936 386.488 159.616 390.776 158.784 391.768C158.496 392.152 158.144 392.248 157.568 392.248C156.896 392.248 155.232 392.216 153.408 392.088C153.824 392.728 154.08 393.72 154.144 394.392C155.84 394.488 157.568 394.52 158.56 394.424C159.584 394.328 160.256 394.04 160.864 393.176C161.92 391.8 162.24 387.224 162.56 373.688C162.56 373.4 162.56 372.504 162.56 372.504L155.328 372.504C155.424 370.136 155.424 367.704 155.424 365.24L153.088 365.24ZM133.92 389.08L134.368 391.544C138.208 390.648 143.584 389.4 148.64 388.216L148.448 386.04L146.688 386.424L146.688 366.808L136.224 366.808L136.224 388.632L133.92 389.08ZM138.4 388.184L138.4 382.68L144.416 382.68L144.416 386.936L138.4 388.184ZM138.4 375.832L144.416 375.832L144.416 380.536L138.4 380.536L138.4 375.832ZM138.4 373.688L138.4 368.984L144.416 368.984L144.416 373.688L138.4 373.688ZM166.432 381.816L166.432 384.184L179.648 384.184L179.648 391.32C179.648 391.96 179.36 392.184 178.656 392.216C177.92 392.216 175.392 392.248 172.704 392.184C173.088 392.824 173.536 393.88 173.728 394.552C177.088 394.584 179.2 394.552 180.416 394.136C181.6 393.752 182.112 393.048 182.112 391.32L182.112 384.184L195.328 384.184L195.328 381.816L182.112 381.816L182.112 376.632L193.504 376.632L193.504 374.328L182.112 374.328L182.112 369.112C185.888 368.664 189.408 368.024 192.128 367.224L190.368 365.272C185.472 366.808 176.16 367.64 168.544 368.024C168.768 368.536 169.056 369.496 169.12 370.104C172.448 369.976 176.096 369.752 179.648 369.4L179.648 374.328L168.576 374.328L168.576 376.632L179.648 376.632L179.648 381.816L166.432 381.816Z"></path></g></svg>